<svg viewBox="0 0 24 24" xmlns="http://www.w3.org/2000/svg"><path d="m14.574 1.0203c-.097-.096997-.29099-.58198-.97097-.58198h-6.7038s.97097.096997 1.36 1.068c0 0 1.069 2.5269 2.0399 4.9558 2.8179 6.6068 7.1898 17.099 7.1898 17.099h6.5108c.097-.097-9.3267-22.443-9.4247-22.54zm-8.8407.87497-5.3438 12.631c-.29199.87497-.097997 1.9439 1.457 1.9439h4.1779l3.6919-8.8417c-1.166-2.9149-2.1359-5.2478-2.1359-5.2478-.096997-.29199-.38899-1.069-.97197-1.069s-.77698.48598-.87397.58298zm-.097997 15.643h-4.4689c-.77698 0-1.166-.48598-1.166-.48598.77698 1.36 3.0119 5.6358 3.0119 5.6358.38899.48598.77698.77698 1.36.77698 1.263 0 3.2069-1.263 3.2069-1.263l7.4808-4.6639z"/></svg>